<svg width="135" height="105" viewBox="0 0 135 105" fill="none" xmlns="http://www.w3.org/2000/svg">
<path d="M73.9249 0.937103L74.2102 11.2663C74.3165 15.1139 77.4128 18.2081 81.2629 18.3143L91.5991 18.5994L81.2629 18.8846C77.4128 18.9909 74.3165 22.085 74.2102 25.9326L73.9249 36.2618L73.6393 25.9326C73.5331 22.085 70.4369 18.9909 66.5866 18.8846L56.2505 18.5994L66.5866 18.3143C70.4369 18.2081 73.5331 15.1139 73.6393 11.2663L73.9249 0.937103Z" fill="#484D56"/>
<path d="M73.9249 0.937103L74.2102 11.2663C74.3165 15.1139 77.4128 18.2081 81.2629 18.3143L91.5991 18.5994L81.2629 18.8846C77.4128 18.9909 74.3165 22.085 74.2102 25.9326L73.9249 36.2618L73.6393 25.9326C73.5331 22.085 70.4369 18.9909 66.5866 18.8846L56.2505 18.5994L66.5866 18.3143C70.4369 18.2081 73.5331 15.1139 73.6393 11.2663L73.9249 0.937103Z" fill="black" fill-opacity="0.2"/>
<path d="M49.0365 72.6679L49.2928 81.9431C49.3884 85.3981 52.1685 88.1765 55.6259 88.2718L64.9073 88.5279L55.6259 88.7841C52.1685 88.8795 49.3884 91.6578 49.2928 95.1128L49.0365 104.388L48.7802 95.1128C48.6849 91.6578 45.9045 88.8795 42.4472 88.7841L33.1658 88.5279L42.4472 88.2718C45.9045 88.1765 48.6849 85.3981 48.7802 81.9431L49.0365 72.6679Z" fill="#484D56"/>
<path d="M49.0365 72.6679L49.2928 81.9431C49.3884 85.3981 52.1685 88.1765 55.6259 88.2718L64.9073 88.5279L55.6259 88.7841C52.1685 88.8795 49.3884 91.6578 49.2928 95.1128L49.0365 104.388L48.7802 95.1128C48.6849 91.6578 45.9045 88.8795 42.4472 88.7841L33.1658 88.5279L42.4472 88.2718C45.9045 88.1765 48.6849 85.3981 48.7802 81.9431L49.0365 72.6679Z" fill="black" fill-opacity="0.2"/>
<path d="M133.429 31.356C136.666 40.3208 132.348 51.1532 122.528 61.4589C112.725 71.7474 97.5156 81.4192 79.2197 88.0153C60.9237 94.6113 43.0386 96.8709 28.9206 95.2068C14.7785 93.5398 4.53441 87.9573 1.29804 78.9926C-1.93836 70.0277 2.37981 59.1954 12.1995 48.8896C22.0026 38.6013 37.2117 28.9295 55.5076 22.3334C73.8037 15.7371 91.6887 13.4777 105.807 15.1418C119.949 16.8088 130.193 22.3912 133.429 31.356Z" stroke="#484D56" stroke-width="0.476532"/>
<path d="M133.429 31.356C136.666 40.3208 132.348 51.1532 122.528 61.4589C112.725 71.7474 97.5156 81.4192 79.2197 88.0153C60.9237 94.6113 43.0386 96.8709 28.9206 95.2068C14.7785 93.5398 4.53441 87.9573 1.29804 78.9926C-1.93836 70.0277 2.37981 59.1954 12.1995 48.8896C22.0026 38.6013 37.2117 28.9295 55.5076 22.3334C73.8037 15.7371 91.6887 13.4777 105.807 15.1418C119.949 16.8088 130.193 22.3912 133.429 31.356Z" stroke="black" stroke-opacity="0.2" stroke-width="0.476532"/>
</svg>
